<svg width="158" height="158" viewBox="0 0 158 158" fill="none" xmlns="http://www.w3.org/2000/svg">
<rect width="158" height="158" rx="79" fill="#BBBBBB"/>
<path d="M68.0837 115.459C64.9587 115.459 62.8753 113.375 62.8753 110.25V105.042C62.8753 102.438 64.9587 99.8337 68.0837 99.8337C70.6878 99.8337 73.292 101.917 73.292 105.042V110.25C73.292 113.375 71.2087 115.459 68.0837 115.459ZM94.1253 110.25V105.042C94.1253 102.438 92.042 99.8337 88.917 99.8337C86.3128 99.8337 83.7087 101.917 83.7087 105.042V110.25C83.7087 112.854 85.792 115.459 88.917 115.459C92.042 115.459 94.1253 113.375 94.1253 110.25ZM130.584 79.0003C130.584 92.542 122.25 104.521 109.75 112.334V120.667C109.75 123.43 108.653 126.079 106.699 128.033C104.746 129.986 102.096 131.084 99.3337 131.084H57.667C54.9043 131.084 52.2548 129.986 50.3013 128.033C48.3478 126.079 47.2503 123.43 47.2503 120.667V112.334C34.7503 104.521 26.417 92.542 26.417 79.0003C26.417 65.187 31.9043 51.9394 41.6718 42.1718C51.4394 32.4043 64.687 26.917 78.5003 26.917C85.34 26.917 92.1127 28.2642 98.4318 30.8816C104.751 33.499 110.492 37.3355 115.329 42.1718C120.165 47.0082 124.002 52.7499 126.619 59.0689C129.236 65.3879 130.584 72.1606 130.584 79.0003ZM52.4587 68.5837C52.4587 62.8545 49.3337 57.6462 44.6462 55.042C39.4378 61.8128 36.8337 70.1462 36.8337 79.0003C36.8337 80.5628 36.8337 82.6462 37.3545 84.2087C45.6878 83.6878 52.4587 76.917 52.4587 68.5837ZM62.8753 63.3753C62.8753 72.2295 69.6462 79.0003 78.5003 79.0003C87.3545 79.0003 94.1253 72.2295 94.1253 63.3753C94.1253 54.5212 87.3545 47.7503 78.5003 47.7503C69.6462 47.7503 62.8753 54.5212 62.8753 63.3753ZM99.3337 120.667V97.2295C93.0837 95.667 85.792 94.6253 78.5003 94.6253C71.2087 94.6253 63.917 95.667 57.667 97.2295V120.667H99.3337ZM119.646 84.2087C120.167 82.6462 120.167 80.5628 120.167 79.0003C120.167 70.1462 117.563 61.8128 112.354 55.042C107.667 57.6462 104.542 62.8545 104.542 68.5837C104.542 76.917 111.313 83.6878 119.646 84.2087Z" fill="#4D4D4D"/>
</svg>
